<svg id="" enable-background="new 0 0 512 512" version="1.1" viewBox="0 0 512 512" xml:space="preserve" xmlns="http://www.w3.org/2000/svg">
  <path d="m423.1 93.304c-35.931-58.424-98.4-93.304-167.1-93.304-68.704 0-131.17 34.88-167.1 93.303-35.798 58.208-38.769 129.36-7.944 190.34 0.255 0.505 0.539 0.996 0.85 1.469l135.24 205.86c8.647 13.163 23.211 21.022 38.961 21.022 15.749 0 30.315-7.859 38.962-21.021l135.24-205.86c0.311-0.473 0.595-0.964 0.85-1.469 30.825-60.98 27.854-132.14-7.944-190.34z"
   fill="#C2132C" />
  <path d="m256 0c-68.704 0-131.17 34.88-167.1 93.303-35.798 58.208-38.769 129.36-7.944 190.34 0.255 0.505 0.539 0.996 0.85 1.469l135.24 205.86c8.647 13.163 23.211 21.022 38.961 21.022v-512z" fill="#FF3F5C" />
  <ellipse cx="256" cy="193.79" rx="115.83" ry="115.53" fill="#A8D3D8" />
  <path d="m256 78.257c-63.972 0-115.83 51.727-115.83 115.54s51.86 115.53 115.83 115.53v-231.07z" fill="#F0F0F0" />
  <path d="m298.84 161.87c-5.857-5.858-15.355-5.858-21.213 0l-17.768 17.767-11.848 11.848c-0.366 0.366-0.802 0.548-1.331 0.515-0.517-0.024-0.947-0.239-1.277-0.637l-5.534-6.681-4.559-5.503c-5.286-6.379-14.741-7.267-21.121-1.982-6.379 5.285-7.267 14.741-1.982 21.121l10.094 12.185c5.691 6.87 14.066 11.049 22.978 11.465 0.493 0.023 0.984 0.035 1.476 0.035 8.393 0 16.512-3.345 22.471-9.304l29.615-29.615c5.857-5.859 5.857-15.356-1e-3 -21.214z"
   fill="#3B4A51" />
  <path d="m256 183.5l-7.984 7.984c-0.366 0.366-0.802 0.548-1.331 0.515-0.517-0.024-0.947-0.239-1.277-0.637l-5.534-6.681-4.559-5.503c-5.286-6.379-14.741-7.267-21.121-1.982-6.379 5.285-7.267 14.741-1.982 21.121l10.094 12.185c5.691 6.87 14.066 11.049 22.978 11.465 0.493 0.023 0.984 0.035 1.476 0.035 3.147 0 6.256-0.47 9.227-1.373l0.013-37.129z"
   fill="#537983" />
</svg>
